# xmcd CD database file generated by Grip 3.0.7
# 
# Track frame offsets:
#       150
#       11705
#       26862
#       39310
#       49585
#       65600
#       76225
#       92935
#       105015
#       118120
#       135977
#       149842
#       177312
#       192192
# 
# Disc length: 2790 seconds
# 
# Revision: 11
# Processed by: cddbd v1.5.1PL0 Copyright (c) Steve Scherf et al.
# Submitted via: Grip 3.0.7
# 
DISCID=bb0ae40e
DTITLE=Patty Loveless - Mountain Soul
DYEAR=2001
DGENRE=Country
TTITLE0=The Boys Are Back In Town
TTITLE1=The Richest Fool Alive
TTITLE2=Daniel Prayed
TTITLE3=Someone I Used To Know (Duet With Jon Randall)
TTITLE4=Out Of Control Raging Fire (Duet With Travis Tritt)
TTITLE5=Rise Up Lazarus
TTITLE6=Cheap Whiskey
TTITLE7=Pretty Little Miss
TTITLE8=I Know You're Married (But I Love You Still) (Duet With Travis Tritt)
TTITLE9=Sorrowful Angels
TTITLE10=Soul Of Constant Sorrow
TTITLE11=You'll Never Leave Harlan Alive
TTITLE12=Two Coats
TTITLE13=Sounds Of Loneliness
EXTD=2001
EXTT0=
EXTT1=
EXTT2=
EXTT3=
EXTT4=
EXTT5=
EXTT6=
EXTT7=
EXTT8=
EXTT9=
EXTT10=
EXTT11=
EXTT12=
EXTT13=
PLAYORDER=
